<svg xmlns="http://www.w3.org/2000/svg" width="609.93" height="175.29" viewBox="0 0 609.93 175.29">
  <g id="Group_31" data-name="Group 31" transform="translate(-1190.144 -3313.505)">
    <text id="_WEBINAR" data-name="            WEBINAR" transform="translate(1190.144 3467.795)" fill="#fff" font-size="82.872" font-family="SegoeUI, Segoe UI" letter-spacing="-0.025em"><tspan x="0" y="0" xml:space="preserve">            WEBINAR</tspan></text>
    <g id="Group_2" data-name="Group 2">
      <g id="Group_1" data-name="Group 1">
        <path id="Path_2" data-name="Path 2" d="M1572.7,3313.516h18.458l13.962,41.035h.171l13.2-41.035h18.473v59.659h-12.291V3330.9h-.165l-14.617,42.279h-10.121l-14.617-41.866h-.171v41.866H1572.7Zm114.549,16.452h-12.282l-9.445,29.59h-.165l-9.781-29.59h-12.7l15.22,40.546c1.341,3.418,0,7.682-4.088,8.1a64.73,64.73,0,0,1-6.94-.423v9.776a71.406,71.406,0,0,0,7.259.418c8.188,0,12.287-2.836,14.88-9.771Zm5.1,43.207h11.869V3313.5h-11.869Zm47.141-16.706c0,2.594-.346,9.946-9.621,9.946-3.841,0-7.27-1.088-7.27-5.522,0-4.341,3.351-5.594,7.027-6.342,3.666-.675,7.853-.763,9.864-2.511Zm-15.556-13.209c.418-4.676,3.346-6.512,7.868-6.512,4.161,0,7.688.748,7.688,5.847,0,4.846-6.775,4.594-14.05,5.682-7.347,1-14.71,3.346-14.71,13.127,0,8.852,6.522,12.951,14.71,12.951,5.269,0,10.786-1.428,14.555-5.346a17.473,17.473,0,0,0,.825,4.166h12.039c-1.083-1.759-1.516-5.672-1.516-9.6v-22.48c0-10.363-10.348-12.286-18.958-12.286-9.7,0-19.649,3.336-20.309,14.452Zm35.617,29.915h11.854v-22.64c0-8.781,2.763-12.374,9.2-12.374,5.522,0,7.61,3.521,7.61,10.616v24.4h11.859v-26.564c0-10.7-3.166-17.8-15.793-17.8a15.4,15.4,0,0,0-13.194,7.187h-.258v-6.027h-11.276Z" fill="#fff"/>
      </g>
    </g>
  </g>
</svg>
