<svg xmlns="http://www.w3.org/2000/svg" width="299.405" height="108.8" viewBox="0 0 299.405 108.8">
  <g id="Group_4" data-name="Group 4" transform="translate(-141.719 -71.504)">
    <path id="Path_7" data-name="Path 7" d="M149.039,79.442v.764c.072,0,.1.006.187.006h0a2.051,2.051,0,0,1,1.894,1.94l-.005,31.9a4.315,4.315,0,0,0,4.472,4.245h.029a4.438,4.438,0,0,0,4.511-4.239l.021-31.294a1.916,1.916,0,0,1,1.9-1.937h.006a1.916,1.916,0,0,1,1.891,1.939l0,31.295a4.371,4.371,0,0,0,4.489,4.244h.01a4.31,4.31,0,0,0,4.5-4.238l.021-31.3a2.048,2.048,0,0,1,1.9-1.936,1.912,1.912,0,0,1,1.89,1.939l-.021,31.295a4.337,4.337,0,0,0,4.495,4.244h.016a4.313,4.313,0,0,0,4.495-4.238l.021-31.9a1.922,1.922,0,0,1,1.9-1.937h.007c.062,0,.1-.01.286-.009v-.761Z" fill="#00a9e0"/>
    <path id="Path_8" data-name="Path 8" d="M204.042,79.5l11.779.008,8.893,26.194h.108l8.445-26.182,11.789.008-.026,38.073-7.844-.006.018-26.98h-.1l-9.347,26.975-6.458,0-9.311-26.724h-.108l-.018,26.717-7.841,0Zm73.094,10.549-7.837,0-6.041,18.879h-.1l-6.229-18.887-8.108-.006,9.7,25.882c.854,2.182,0,4.9-2.613,5.171a41.544,41.544,0,0,1-4.428-.273l0,6.238a45.5,45.5,0,0,0,4.633.27c5.225,0,7.842-1.8,9.5-6.229Zm3.239,27.576,7.575.005.025-38.08-7.574,0Zm30.091-10.641c0,1.655-.225,6.347-6.144,6.343-2.451,0-4.639-.7-4.637-3.527,0-2.77,2.141-3.569,4.487-4.044,2.34-.43,5.012-.484,6.3-1.6Zm-9.921-8.436c.268-2.985,2.138-4.155,5.024-4.153,2.655,0,4.9.481,4.9,3.735,0,3.093-4.325,2.929-8.969,3.62-4.689.638-9.388,2.129-9.393,8.371,0,5.649,4.157,8.268,9.382,8.271,3.363,0,6.884-.906,9.291-3.405a11.181,11.181,0,0,0,.525,2.659l7.683,0c-.69-1.123-.965-3.62-.963-6.128l.009-14.346c.005-6.613-6.6-7.845-12.093-7.849-6.189,0-12.541,2.121-12.967,9.214Zm22.717,19.106,7.564.005.01-14.448c0-5.6,1.769-7.9,5.875-7.893,3.524,0,4.855,2.25,4.852,6.778l-.01,15.57,7.568.005.011-16.952c.005-6.831-2.013-11.363-10.071-11.368a9.829,9.829,0,0,0-8.423,4.581h-.164l0-3.847-7.2,0Zm-175.9-44a3.471,3.471,0,0,0-3.461,3.456l-.028,42.057a3.459,3.459,0,0,0,3.455,3.454l42.051.029a3.464,3.464,0,0,0,3.457-3.449l.029-42.058a3.475,3.475,0,0,0-3.453-3.46l-42.05-.029m41.914-2.123a5.758,5.758,0,0,1,5.741,5.745l-.029,41.791a5.757,5.757,0,0,1-5.748,5.738l-41.785-.028a5.757,5.757,0,0,1-5.737-5.746l.028-41.791a5.758,5.758,0,0,1,5.745-5.738l41.785.029" fill="#161615"/>
    <path id="Path_9" data-name="Path 9" d="M316.362,160.741a2.98,2.98,0,0,0-1.467-.336,4.527,4.527,0,0,0-2.251.564c-.724.434-1.063.934-1.011,1.5q.054.878,1.032.879c.366,0,.56-.144.6-.437.017-.086.178-.2.481-.362a1.977,1.977,0,0,1,.918-.233,1.466,1.466,0,0,1,1.342.853,5.723,5.723,0,0,1,.669,2.666,7.011,7.011,0,0,1-.106,1.161,2.26,2.26,0,0,0-2.3-1.528,3.463,3.463,0,0,0-2.31,1.472,4.356,4.356,0,0,0-1.075,2.737,2.264,2.264,0,0,0,.608,1.643,2.1,2.1,0,0,0,1.585.632,6.17,6.17,0,0,0,3-.978.943.943,0,0,0,.957.619.616.616,0,0,0,.517-.23,9.459,9.459,0,0,0,.673-1.99,14.525,14.525,0,0,0,.492-3.593q0-3.642-2.349-5.039m-3.155,9.382c-.309,0-.467-.168-.467-.494a2.184,2.184,0,0,1,.5-1.385,2,2,0,0,1,1.232-.759c.289-.052.634.455,1.032,1.528a4.615,4.615,0,0,1-2.3,1.11m-7.048-9.142a1.224,1.224,0,0,1,.2.658.745.745,0,0,1-.336.632,1.169,1.169,0,0,1-.721.246,1.643,1.643,0,0,1-.49-.1,1.671,1.671,0,0,0-.467-.106.837.837,0,0,0-.464.154q-2.172,1.214-4.939,5.476a4.474,4.474,0,0,0-.61,2.056,4.25,4.25,0,0,1-.324,1.585,1,1,0,0,1-.852.414,1.357,1.357,0,0,1-1.007-.415,1.129,1.129,0,0,1-.309-.829,6.524,6.524,0,0,1,.077-.875,24.321,24.321,0,0,0,.44-4.39,11.211,11.211,0,0,0-.563-3.827.724.724,0,0,1-.053-.283.775.775,0,0,1,.366-.648,1.394,1.394,0,0,1,.826-.259,1.166,1.166,0,0,1,.826.317c.375.339.585,1.224.62,2.636.016.667.025,1.3.025,1.885a19.084,19.084,0,0,1,4.5-4.469,3.2,3.2,0,0,1,1.652-.462,3.818,3.818,0,0,1,1.214.2.992.992,0,0,1,.388.4m-11.269,3.648a4.444,4.444,0,0,0-1.676-3.074,3,3,0,0,0-2.171-.752c-1.366.1-2.614,1.272-3.76,3.4a1.286,1.286,0,0,0-.273-.53,1.033,1.033,0,0,0-.8-.388,1.016,1.016,0,0,0-.616.207,5.484,5.484,0,0,1-.934.1,18.52,18.52,0,0,0-2.093.1,26.017,26.017,0,0,1,.286-4.965c.417-2.474,1.194-3.717,2.329-3.717a2.355,2.355,0,0,1,1.165.363,1.488,1.488,0,0,0,.75.231.8.8,0,0,0,.9-.9c0-.842-.618-1.363-1.858-1.554a6.707,6.707,0,0,0-.8-.047c-2.069,0-3.482,1.4-4.241,4.232a30.289,30.289,0,0,0-.728,6.741,4.913,4.913,0,0,0-2.482,1.4,1.152,1.152,0,0,0-.336.8,1.175,1.175,0,0,0,.361.84,1.06,1.06,0,0,0,1.758-.2,1.819,1.819,0,0,1,.724-.714,51.224,51.224,0,0,1-.34,5.89,42.692,42.692,0,0,1-.7,4.264,8.054,8.054,0,0,1-.469,1.756,1.336,1.336,0,0,0-.306.9,1.092,1.092,0,0,0,.667,1.113,2.011,2.011,0,0,0,.75.181.931.931,0,0,0,.9-.723c.034-.122.119-.576.261-1.369q.723-4.056,1.087-6.1a49.06,49.06,0,0,0,.34-6.357c1.431-.085,2.53-.127,3.307-.126a2.337,2.337,0,0,0,.724-.128,5.166,5.166,0,0,0,.181,4.442,3.263,3.263,0,0,0,1.341,1.426,2.228,2.228,0,0,0,1.08.257,5.393,5.393,0,0,0,3.725-1.679,5.9,5.9,0,0,0,1.994-4.44,7.9,7.9,0,0,0-.052-.879m-2.585,2.943a3.787,3.787,0,0,1-1.241,1.355,2.83,2.83,0,0,1-1.577.66c-.4,0-.717-.26-.957-.774a3.421,3.421,0,0,1-.256-1.316,2.913,2.913,0,0,1,.106-.829q1.113-3.207,3.31-3.772a1.606,1.606,0,0,1,1.006,1.011,3.146,3.146,0,0,1,.282,1.313,5.406,5.406,0,0,1-.673,2.352" fill="#515150"/>
    <path id="Path_10" data-name="Path 10" d="M389.1,149.705l2.833,0,0-5.4c0-2.093.654-2.948,2.194-2.947,1.329,0,1.815.837,1.814,2.531l0,5.821,2.824,0,0-6.341c0-2.553-.751-4.248-3.762-4.25A3.578,3.578,0,0,0,392,140.837h-.056l0-5.36-2.833,0Zm-3-13.4-2.833,0,0,3.087h-1.711v1.9h1.711l0,6.081c0,2.073,1.495,2.449,3.249,2.45a10.946,10.946,0,0,0,1.655-.1V147.51a3.833,3.833,0,0,1-.875.082c-.954,0-1.2-.241-1.2-1.2l0-5.1h2.073v-1.9H386.1Zm-8.241,13.39,2.829,0,.01-14.234-2.83,0Zm-4.68-3.991a2.1,2.1,0,0,1-2.295,2.367c-.918,0-1.734-.277-1.733-1.314s.8-1.355,1.679-1.516a5.631,5.631,0,0,0,2.35-.593Zm-3.706-3.152c.1-1.115.778-1.555,1.873-1.555,1,0,1.836.2,1.835,1.4.124,2.313-6.82-.2-6.857,4.483,0,2.109,1.528,3.087,3.5,3.089a4.711,4.711,0,0,0,3.479-1.275,4.158,4.158,0,0,0,.19,1l2.869,0a5.341,5.341,0,0,1-.353-2.294l0-5.363c0-2.468-2.472-2.933-4.525-2.935-2.307,0-4.683.82-4.846,3.448Zm-3.967,2.669c.22-3.168-1.489-6.124-5-6.126a5.173,5.173,0,0,0-5.268,5.442c0,3.188,2.01,5.42,5.261,5.422a4.621,4.621,0,0,0,4.826-3.464l-2.5,0a2.323,2.323,0,0,1-2.228,1.334c-1.6,0-2.454-.8-2.529-2.611Zm-7.431-1.8a2.213,2.213,0,0,1,2.354-2.19c1.372,0,1.99.758,2.246,2.193Zm-16.391,6.25,3.13,0,0-6.143,5.761,0,0,6.143,3.132,0,.01-14.23-3.133,0,0,5.458-5.762,0,0-5.458-3.129,0Zm-12.756-.008,2.833,0,0-4.646c0-1.833.7-3.31,2.789-3.309a5.333,5.333,0,0,1,1.02.1l0-2.632a2.2,2.2,0,0,0-.622-.1,3.633,3.633,0,0,0-3.289,2.193h-.039v-1.915l-2.691,0Zm-1.251-4.466c.216-3.169-1.493-6.124-5-6.127a5.175,5.175,0,0,0-5.265,5.442c0,3.189,2.014,5.421,5.258,5.423a4.618,4.618,0,0,0,4.829-3.465l-2.494,0a2.326,2.326,0,0,1-2.235,1.335c-1.592,0-2.451-.8-2.525-2.611Zm-7.435-1.8a2.215,2.215,0,0,1,2.354-2.189c1.379,0,1.99.758,2.249,2.192Zm-5.335-7.137-2.833,0,0,3.087h-1.711l0,1.9h1.711l0,6.08c0,2.073,1.492,2.45,3.249,2.451a11.019,11.019,0,0,0,1.656-.1v-2.211a3.848,3.848,0,0,1-.879.082c-.957,0-1.194-.241-1.193-1.2l0-5.1h2.073l0-1.895H314.9Zm-6.6,0-2.83,0,0,3.086h-1.721v1.895h1.721l-.005,6.081c0,2.073,1.493,2.449,3.246,2.45a11,11,0,0,0,1.655-.1l0-2.211a3.844,3.844,0,0,1-.882.081c-.954,0-1.191-.241-1.19-1.2l0-5.1,2.073,0v-1.9l-2.073,0Zm-4.853,8.927c.222-3.169-1.49-6.125-5-6.127A5.17,5.17,0,0,0,293.2,144.5c0,3.188,2.006,5.42,5.257,5.423a4.617,4.617,0,0,0,4.826-3.465l-2.491,0a2.327,2.327,0,0,1-2.235,1.334c-1.592,0-2.45-.8-2.528-2.61Zm-7.432-1.8a2.219,2.219,0,0,1,2.351-2.19c1.375,0,2,.758,2.256,2.193Zm-12.513-.087,3.4,0c1.356,0,2.251.58,2.25,2.035,0,1.474-1.1,1.868-2.315,1.867l-3.343,0Zm-3.137,6.338,6.893,0c2.574,0,5.029-1.234,5.031-4.123a3.455,3.455,0,0,0-2.61-3.611,3.1,3.1,0,0,0,1.937-2.97c0-2.649-1.837-3.525-4.542-3.527l-6.7-.005Zm3.141-11.8,2.925,0c1.115,0,2.155.3,2.154,1.636,0,1.195-.8,1.694-1.916,1.694l-3.166,0Zm154.91,33.261,2.689,0,.009-14.234-2.826,0,0,5.186h-.039a3.555,3.555,0,0,0-3.056-1.536c-3.027,0-4.565,2.567-4.567,5.337,0,2.87,1.513,5.523,4.625,5.525a3.407,3.407,0,0,0,3.131-1.594h.039Zm-.036-5.182c0,1.691-.584,3.326-2.434,3.325-1.76,0-2.489-1.693-2.488-3.309,0-1.675.634-3.286,2.493-3.285,1.829,0,2.43,1.594,2.429,3.269m-11.967,5.174,2.83,0,.009-14.234-2.829,0Zm-7.413-.005,2.833,0,0-4.643c0-1.836.7-3.309,2.789-3.308a5.274,5.274,0,0,1,1.023.1l0-2.632a2.179,2.179,0,0,0-.622-.1,3.619,3.619,0,0,0-3.291,2.189h-.037v-1.915h-2.694Zm-12.076-5.148a5.335,5.335,0,1,0,5.328-5.438,5.05,5.05,0,0,0-5.328,5.438m2.833,0c0-1.658.578-3.309,2.493-3.308,1.932,0,2.51,1.653,2.509,3.312s-.582,3.283-2.513,3.282c-1.915,0-2.49-1.637-2.489-3.286m-2.484-9.1-3.074,0-2.339,9.807h-.033l-2.428-9.81-2.929,0L394,166.519h-.043l-2.247-9.692-3.129,0,3.761,14.237,3.168,0,2.376-9.685h.04l2.405,9.688,3.112,0Zm-30.149,14.214,2.832,0,0-4.643c0-1.836.7-3.31,2.792-3.308a5.215,5.215,0,0,1,1.013.1l0-2.632a2.066,2.066,0,0,0-.615-.1,3.614,3.614,0,0,0-3.289,2.189h-.046l0-1.915-2.689,0Zm-1.251-4.466c.219-3.169-1.49-6.118-5-6.12a5.166,5.166,0,0,0-5.265,5.438c0,3.185,2.007,5.421,5.258,5.423a4.614,4.614,0,0,0,4.826-3.465H373.21a2.328,2.328,0,0,1-2.232,1.331c-1.6,0-2.454-.8-2.531-2.611Zm-7.435-1.8a2.22,2.22,0,0,1,2.357-2.19c1.376,0,1.99.755,2.246,2.193Zm-5.339-7.141-2.823,0,0,3.09h-1.721v1.892h1.721l0,6.08c0,2.073,1.493,2.453,3.243,2.454a10.972,10.972,0,0,0,1.655-.1l0-2.211a4.245,4.245,0,0,1-.876.079c-.96,0-1.2-.238-1.2-1.2l0-5.1h2.076v-1.892h-2.076Zm-6.6,0-2.823,0,0,3.089h-1.721v1.892h1.72l0,6.081c0,2.073,1.493,2.452,3.24,2.454a10.965,10.965,0,0,0,1.658-.1l0-2.211a4.249,4.249,0,0,1-.882.078c-.954,0-1.194-.238-1.194-1.2l0-5.1,2.076,0v-1.892l-2.076,0Zm-4.846,8.927c.222-3.169-1.49-6.118-5-6.121a5.168,5.168,0,0,0-5.265,5.439c0,3.185,2.01,5.421,5.258,5.423a4.618,4.618,0,0,0,4.829-3.465l-2.494,0a2.331,2.331,0,0,1-2.235,1.331c-1.589,0-2.451-.8-2.525-2.611Zm-7.432-1.8a2.213,2.213,0,0,1,2.351-2.19c1.375,0,1.993.755,2.252,2.193Zm-12.52-.09,3.409,0c1.356,0,2.254.58,2.253,2.035,0,1.477-1.1,1.871-2.311,1.87l-3.353,0Zm-3.133,6.338,6.9.005c2.573,0,5.025-1.234,5.027-4.126a3.459,3.459,0,0,0-2.607-3.608,3.086,3.086,0,0,0,1.933-2.967c0-2.652-1.833-3.532-4.545-3.534l-6.7,0Zm3.137-11.8,2.932,0c1.115,0,2.151.3,2.151,1.637,0,1.194-.8,1.69-1.913,1.69l-3.172,0Z" fill="#00a9e0"/>
  </g>
</svg>
