<svg xmlns="http://www.w3.org/2000/svg" width="330.715" height="80.469" viewBox="0 0 330.715 80.469">
  <g id="Group_7" data-name="Group 7" transform="translate(-1497.566 -73.886)">
    <g id="Group_5" data-name="Group 5">
      <path id="Path_11" data-name="Path 11" d="M1521.759,73.886l17.095.011,24.107,64.6-17.548-.012-3.972-11.58-22.522-.016-4.078,11.575-17.275-.011Zm1.058,40.522,14.653.01L1530.339,91.8h-.18Z" fill="#d9000d"/>
      <path id="Path_12" data-name="Path 12" d="M1567.791,91.554l14.924.01-.005,8.232h.18c2.266-5.968,7.514-9.13,14.117-9.126a16.4,16.4,0,0,1,3.618.364l-.01,14.02a21.523,21.523,0,0,0-5.879-.908c-7.6-.006-11.581,5.237-11.585,11.117l-.016,23.245-15.376-.01Z" fill="#d9000d"/>
      <path id="Path_13" data-name="Path 13" d="M1634.086,101.549l-9.5-.006-.015,21.346c0,3.708,2.168,4.524,5.515,4.526,1.267,0,2.623-.179,3.98-.178l-.008,11.306c-2.8.088-5.608.448-8.412.446-13.115-.008-16.459-3.81-16.45-16.563l.014-20.894-7.779,0,.006-9.95,7.78,0,.009-14.2,15.376.01-.009,14.2,9.5.006Z" fill="#d9000d"/>
      <path id="Path_14" data-name="Path 14" d="M1640.981,73.966l15.377.01-.016,24.06h.181c2.355-4.792,8.688-7.772,14.3-7.769,15.648.011,16.906,11.408,16.9,18.192l-.021,30.12-15.376-.01.016-22.7c0-6.422.731-12.934-7.68-12.94-5.789,0-8.325,4.879-8.328,10.035l-.018,25.6-15.376-.011Z" fill="#d9000d"/>
      <path id="Path_15" data-name="Path 15" d="M1698.5,91.643l14.925.01-.006,8.231h.181c2.265-5.968,7.513-9.13,14.116-9.126a16.4,16.4,0,0,1,3.618.364l-.01,14.02a21.523,21.523,0,0,0-5.879-.908c-7.6-.005-11.581,5.238-11.585,11.117l-.015,23.246-15.376-.011Z" fill="#d9000d"/>
      <path id="Path_16" data-name="Path 16" d="M1762.054,142.79c-3.716,10.309-9.234,11.572-19.636,11.565l-7.236,0,.009-12.482,5.336,0c3.528,0,6.153-1.985,6.155-5.242,0-2.532-2.979-9.77-3.881-12.3l-12.1-32.661,16.281.011,8.844,30.578h.18l8.885-30.567,15.738.011Z" fill="#d9000d"/>
      <path id="Path_17" data-name="Path 17" d="M1785.62,74.064l15.376.01-.043,64.581-15.376-.01Z" fill="#d9000d"/>
    </g>
    <g id="Group_6" data-name="Group 6">
      <path id="Path_18" data-name="Path 18" d="M1819.483,74.646a8.578,8.578,0,1,1-8.81,8.546A8.5,8.5,0,0,1,1819.483,74.646Zm-.01,15.316a6.747,6.747,0,1,0-6.461-6.769A6.517,6.517,0,0,0,1819.473,89.962Zm-3.409-11.581,3.623,0c2.408,0,3.759.76,3.758,2.846a2.394,2.394,0,0,1-2.523,2.566l2.565,4.2-2,0-2.335-4.1h-1.193l0,4.1h-1.9Zm1.9,4.013h1.7c1.077,0,1.879-.159,1.88-1.328,0-1.032-1.1-1.193-1.971-1.193h-1.605Z" fill="#d9000d"/>
    </g>
  </g>
</svg>
