<svg xmlns="http://www.w3.org/2000/svg" width="299.405" height="108.8" viewBox="0 0 299.405 108.8">
  <g id="Group_3" data-name="Group 3" transform="translate(-187.719 -3310.184)">
    <path id="Path_3" data-name="Path 3" d="M195.039,3318.122v.763c.072,0,.1.007.187.007h0a2.05,2.05,0,0,1,1.894,1.939l-.005,31.9a4.314,4.314,0,0,0,4.472,4.244h.029a4.437,4.437,0,0,0,4.511-4.238l.021-31.295a1.916,1.916,0,0,1,1.9-1.936h.006a1.914,1.914,0,0,1,1.891,1.939l0,31.294a4.372,4.372,0,0,0,4.489,4.245h.01a4.311,4.311,0,0,0,4.5-4.239l.021-31.294a2.049,2.049,0,0,1,1.9-1.937,1.913,1.913,0,0,1,1.89,1.939l-.021,31.3a4.336,4.336,0,0,0,4.495,4.244h.017a4.312,4.312,0,0,0,4.494-4.238l.021-31.9a1.921,1.921,0,0,1,1.9-1.936h.007c.062,0,.1-.01.286-.01v-.76Z" fill="#fff"/>
    <path id="Path_4" data-name="Path 4" d="M250.042,3318.185l11.779.008,8.893,26.194h.108l8.445-26.182,11.789.007-.026,38.073-7.844,0,.018-26.981H283.1l-9.347,26.975-6.458,0-9.311-26.724h-.108l-.018,26.718-7.841-.006Zm73.094,10.549-7.837-.006-6.041,18.88h-.1l-6.229-18.888-8.108,0,9.7,25.881c.854,2.183,0,4.9-2.613,5.171a41.275,41.275,0,0,1-4.428-.273l-.005,6.239a45.435,45.435,0,0,0,4.633.269c5.225,0,7.842-1.8,9.5-6.228Zm3.239,27.575,7.575,0,.025-38.079-7.574-.005Zm30.091-10.64c0,1.655-.225,6.347-6.144,6.343-2.451,0-4.639-.7-4.637-3.528,0-2.77,2.141-3.568,4.487-4.044,2.34-.429,5.012-.483,6.3-1.6Zm-9.921-8.437c.268-2.984,2.138-4.154,5.024-4.152,2.655,0,4.9.48,4.9,3.734,0,3.093-4.325,2.929-8.969,3.62-4.689.639-9.388,2.129-9.393,8.371,0,5.65,4.157,8.268,9.382,8.272,3.363,0,6.884-.907,9.291-3.406a11.163,11.163,0,0,0,.525,2.659l7.683,0c-.69-1.122-.965-3.62-.963-6.127l.009-14.346c.005-6.614-6.6-7.845-12.093-7.849-6.189,0-12.541,2.12-12.967,9.214Zm22.717,19.106,7.564.005.01-14.448c0-5.6,1.769-7.9,5.875-7.893,3.524,0,4.855,2.251,4.852,6.778l-.01,15.57,7.568,0,.011-16.951c.005-6.831-2.013-11.363-10.071-11.369a9.831,9.831,0,0,0-8.423,4.581h-.164l0-3.846-7.2-.005Zm-175.9-44a3.47,3.47,0,0,0-3.461,3.456l-.028,42.057a3.46,3.46,0,0,0,3.455,3.454l42.051.028a3.463,3.463,0,0,0,3.457-3.449l.029-42.057a3.475,3.475,0,0,0-3.453-3.461l-42.05-.028m41.914-2.124a5.759,5.759,0,0,1,5.741,5.746l-.029,41.79a5.758,5.758,0,0,1-5.748,5.738l-41.785-.028a5.756,5.756,0,0,1-5.737-5.745l.028-41.791a5.757,5.757,0,0,1,5.745-5.738l41.785.028" fill="#fff"/>
    <path id="Path_5" data-name="Path 5" d="M362.362,3399.421a2.98,2.98,0,0,0-1.467-.337,4.537,4.537,0,0,0-2.251.564c-.724.434-1.063.934-1.011,1.5q.054.879,1.032.879c.366,0,.56-.144.6-.437.017-.085.178-.2.481-.361a1.956,1.956,0,0,1,.918-.233,1.464,1.464,0,0,1,1.342.853,5.719,5.719,0,0,1,.669,2.665,7.023,7.023,0,0,1-.106,1.162,2.261,2.261,0,0,0-2.3-1.529,3.461,3.461,0,0,0-2.31,1.473,4.353,4.353,0,0,0-1.075,2.737,2.262,2.262,0,0,0,.608,1.642,2.1,2.1,0,0,0,1.585.633,6.173,6.173,0,0,0,3-.979.945.945,0,0,0,.957.62.619.619,0,0,0,.517-.23,9.474,9.474,0,0,0,.673-1.991,14.517,14.517,0,0,0,.492-3.592q0-3.643-2.349-5.039m-3.155,9.382c-.309,0-.467-.169-.467-.494a2.193,2.193,0,0,1,.5-1.385,2,2,0,0,1,1.232-.759c.289-.053.634.454,1.032,1.527a4.619,4.619,0,0,1-2.3,1.111m-7.048-9.143a1.225,1.225,0,0,1,.2.659.743.743,0,0,1-.336.631,1.158,1.158,0,0,1-.721.246,1.64,1.64,0,0,1-.49-.1,1.693,1.693,0,0,0-.467-.1.822.822,0,0,0-.464.154q-2.172,1.212-4.939,5.475a4.479,4.479,0,0,0-.61,2.056,4.257,4.257,0,0,1-.324,1.586,1,1,0,0,1-.852.414,1.361,1.361,0,0,1-1.007-.415,1.13,1.13,0,0,1-.309-.83,6.538,6.538,0,0,1,.077-.875,24.31,24.31,0,0,0,.44-4.389,11.212,11.212,0,0,0-.563-3.827.727.727,0,0,1-.053-.283.774.774,0,0,1,.366-.648,1.381,1.381,0,0,1,.826-.259,1.164,1.164,0,0,1,.826.316c.375.339.585,1.224.62,2.636.016.668.025,1.3.025,1.885a19.074,19.074,0,0,1,4.5-4.468,3.21,3.21,0,0,1,1.652-.463,3.79,3.79,0,0,1,1.214.205.983.983,0,0,1,.388.4m-11.269,3.648a4.449,4.449,0,0,0-1.676-3.074,3.005,3.005,0,0,0-2.171-.752c-1.366.1-2.613,1.272-3.76,3.4a1.274,1.274,0,0,0-.273-.53,1.021,1.021,0,0,0-1.418-.182,5.3,5.3,0,0,1-.934.1,18.751,18.751,0,0,0-2.093.1,26.028,26.028,0,0,1,.286-4.965c.417-2.474,1.194-3.717,2.329-3.716a2.343,2.343,0,0,1,1.165.362,1.487,1.487,0,0,0,.75.231.8.8,0,0,0,.9-.9c0-.842-.618-1.362-1.858-1.554a6.872,6.872,0,0,0-.8-.047c-2.069,0-3.482,1.4-4.241,4.232a30.3,30.3,0,0,0-.728,6.742,4.91,4.91,0,0,0-2.482,1.4,1.154,1.154,0,0,0-.336.8,1.173,1.173,0,0,0,.361.839,1.06,1.06,0,0,0,1.758-.2,1.807,1.807,0,0,1,.724-.713,51.216,51.216,0,0,1-.34,5.889,42.6,42.6,0,0,1-.7,4.264,8.07,8.07,0,0,1-.469,1.757,1.335,1.335,0,0,0-.306.9,1.09,1.09,0,0,0,.667,1.113,2.032,2.032,0,0,0,.75.182.932.932,0,0,0,.906-.724c.033-.121.118-.575.26-1.368q.725-4.058,1.087-6.1a49.06,49.06,0,0,0,.34-6.357c1.431-.084,2.53-.126,3.307-.126a2.28,2.28,0,0,0,.724-.128,5.166,5.166,0,0,0,.181,4.442,3.257,3.257,0,0,0,1.341,1.426,2.228,2.228,0,0,0,1.08.257,5.391,5.391,0,0,0,3.725-1.678,5.9,5.9,0,0,0,1.994-4.441,7.894,7.894,0,0,0-.052-.879m-2.585,2.944a3.784,3.784,0,0,1-1.241,1.354,2.832,2.832,0,0,1-1.577.661c-.4,0-.717-.261-.957-.774a3.43,3.43,0,0,1-.256-1.317,2.924,2.924,0,0,1,.106-.829q1.113-3.207,3.31-3.771a1.607,1.607,0,0,1,1.006,1.01,3.153,3.153,0,0,1,.282,1.313,5.409,5.409,0,0,1-.673,2.353" fill="#fff"/>
    <path id="Path_6" data-name="Path 6" d="M435.1,3388.385l2.833,0,0-5.4c0-2.093.654-2.948,2.194-2.947,1.329,0,1.815.837,1.814,2.532l0,5.82,2.824,0,0-6.34c0-2.553-.751-4.249-3.762-4.251a3.583,3.583,0,0,0-3.011,1.716h-.056l0-5.36-2.833,0Zm-3-13.4-2.833,0,0,3.086h-1.711v1.9h1.711l0,6.081c0,2.073,1.495,2.449,3.249,2.45a10.939,10.939,0,0,0,1.655-.1v-2.211a3.83,3.83,0,0,1-.875.081c-.954,0-1.2-.241-1.2-1.2l0-5.1,2.073,0v-1.9l-2.073,0Zm-8.241,13.389,2.829,0,.01-14.234-2.83,0Zm-4.68-3.991a2.1,2.1,0,0,1-2.295,2.368c-.918,0-1.734-.278-1.733-1.314s.8-1.355,1.679-1.516a5.615,5.615,0,0,0,2.35-.594Zm-3.706-3.151c.1-1.116.778-1.556,1.873-1.555,1,0,1.836.2,1.835,1.4.124,2.313-6.82-.2-6.857,4.483,0,2.11,1.528,3.088,3.5,3.089a4.715,4.715,0,0,0,3.479-1.274,4.142,4.142,0,0,0,.19,1l2.87,0a5.318,5.318,0,0,1-.354-2.293l0-5.364c0-2.467-2.472-2.933-4.525-2.934-2.307,0-4.683.819-4.846,3.448Zm-3.967,2.669c.22-3.169-1.489-6.124-5-6.127a5.173,5.173,0,0,0-5.268,5.442c0,3.188,2.01,5.421,5.261,5.423a4.622,4.622,0,0,0,4.826-3.465l-2.5,0a2.323,2.323,0,0,1-2.228,1.335c-1.6,0-2.454-.8-2.529-2.611Zm-7.431-1.8a2.212,2.212,0,0,1,2.354-2.189c1.372,0,1.99.758,2.246,2.192Zm-16.391,6.251,3.13,0,0-6.143,5.761,0,0,6.143,3.132,0,.01-14.231-3.132,0,0,5.459-5.762,0,0-5.459-3.129,0Zm-12.756-.009,2.833,0,0-4.646c0-1.833.7-3.31,2.789-3.308a5.174,5.174,0,0,1,1.02.1l0-2.633a2.163,2.163,0,0,0-.622-.1,3.633,3.633,0,0,0-3.289,2.192h-.039v-1.915h-2.691Zm-1.251-4.466c.216-3.168-1.493-6.124-5-6.126a5.174,5.174,0,0,0-5.265,5.442c0,3.188,2.014,5.42,5.258,5.422a4.617,4.617,0,0,0,4.829-3.464l-2.494,0a2.326,2.326,0,0,1-2.235,1.334c-1.592,0-2.451-.8-2.525-2.611Zm-7.435-1.8a2.216,2.216,0,0,1,2.354-2.19c1.379,0,1.99.758,2.249,2.193Zm-5.335-7.137-2.833,0,0,3.086h-1.711l0,1.9h1.711l0,6.081c0,2.073,1.492,2.449,3.249,2.45a11.042,11.042,0,0,0,1.656-.1v-2.212a3.793,3.793,0,0,1-.879.082c-.957,0-1.194-.241-1.193-1.2l0-5.1,2.073,0,0-1.9H360.9Zm-6.6,0-2.83,0,0,3.087h-1.721v1.9h1.721l-.005,6.08c0,2.073,1.493,2.45,3.246,2.451a10.973,10.973,0,0,0,1.655-.1l0-2.211a3.841,3.841,0,0,1-.882.082c-.954,0-1.191-.241-1.19-1.2l0-5.1h2.073v-1.9h-2.073Zm-4.853,8.927c.222-3.168-1.49-6.124-5-6.127a5.17,5.17,0,0,0-5.265,5.442c0,3.189,2.006,5.421,5.257,5.423a4.616,4.616,0,0,0,4.826-3.465h-2.49a2.33,2.33,0,0,1-2.236,1.334c-1.592,0-2.45-.8-2.528-2.611Zm-7.432-1.8a2.218,2.218,0,0,1,2.351-2.189c1.375,0,2,.758,2.256,2.193Zm-12.513-.087,3.406,0c1.355,0,2.25.581,2.249,2.035,0,1.474-1.1,1.868-2.315,1.868l-3.343,0Zm-3.137,6.338,6.893,0c2.574,0,5.029-1.234,5.031-4.123a3.456,3.456,0,0,0-2.61-3.611,3.1,3.1,0,0,0,1.937-2.97c0-2.649-1.837-3.525-4.542-3.527l-6.7,0Zm3.141-11.8,2.925,0c1.115,0,2.155.3,2.154,1.637,0,1.194-.8,1.694-1.916,1.693l-3.166,0Zm154.91,33.262h2.689l.009-14.234-2.826,0,0,5.186h-.039a3.554,3.554,0,0,0-3.056-1.535c-3.027,0-4.565,2.566-4.567,5.337,0,2.869,1.513,5.522,4.625,5.524a3.407,3.407,0,0,0,3.131-1.594h.039Zm-.036-5.183c0,1.691-.584,3.326-2.434,3.325-1.76,0-2.489-1.693-2.488-3.308,0-1.675.634-3.287,2.493-3.286,1.829,0,2.43,1.594,2.429,3.269m-11.967,5.174,2.83,0,.009-14.234-2.829,0Zm-7.413,0,2.833,0,0-4.642c0-1.836.7-3.31,2.789-3.309a5.282,5.282,0,0,1,1.023.1l0-2.632a2.143,2.143,0,0,0-.622-.1,3.619,3.619,0,0,0-3.291,2.189h-.037l0-1.915-2.7,0Zm-12.076-5.147a5.335,5.335,0,1,0,5.328-5.439,5.05,5.05,0,0,0-5.328,5.439m2.833,0c0-1.659.578-3.31,2.493-3.309,1.932,0,2.51,1.654,2.509,3.312s-.582,3.283-2.513,3.282c-1.915,0-2.49-1.637-2.489-3.285m-2.484-9.1-3.074,0-2.339,9.807h-.033l-2.428-9.81-2.929,0L440,3405.2h-.043l-2.247-9.692-3.129,0,3.761,14.236,3.168,0,2.376-9.686h.04l2.405,9.689,3.112,0Zm-30.149,14.214,2.832,0,0-4.643c0-1.836.7-3.309,2.792-3.308a5.128,5.128,0,0,1,1.013.1l0-2.633a2.13,2.13,0,0,0-.615-.1,3.616,3.616,0,0,0-3.289,2.19h-.046l0-1.915-2.688,0Zm-1.251-4.466c.219-3.168-1.49-6.117-5-6.12a5.167,5.167,0,0,0-5.265,5.439c0,3.185,2.007,5.42,5.258,5.423a4.615,4.615,0,0,0,4.826-3.465l-2.491,0a2.328,2.328,0,0,1-2.232,1.331c-1.6,0-2.454-.8-2.531-2.611Zm-7.435-1.8a2.221,2.221,0,0,1,2.357-2.19c1.376,0,1.99.755,2.246,2.193Zm-5.339-7.14-2.823,0,0,3.089h-1.721v1.892h1.721l0,6.081c0,2.073,1.493,2.452,3.243,2.453a10.963,10.963,0,0,0,1.655-.1l0-2.211a4.319,4.319,0,0,1-.875.078c-.961,0-1.2-.238-1.2-1.2l0-5.1,2.076,0v-1.892l-2.076,0Zm-6.6,0-2.823,0,0,3.09h-1.721v1.892h1.72l0,6.08c0,2.073,1.493,2.453,3.24,2.454a10.984,10.984,0,0,0,1.658-.1l0-2.211a4.252,4.252,0,0,1-.882.079c-.954,0-1.194-.238-1.194-1.2l0-5.1h2.076v-1.892H402.51Zm-4.846,8.927c.222-3.169-1.49-6.118-5-6.12a5.168,5.168,0,0,0-5.265,5.438c0,3.186,2.01,5.421,5.258,5.423a4.617,4.617,0,0,0,4.829-3.465h-2.494a2.333,2.333,0,0,1-2.235,1.331c-1.589,0-2.451-.8-2.525-2.611Zm-7.432-1.8a2.213,2.213,0,0,1,2.351-2.19c1.375,0,1.993.755,2.252,2.193Zm-12.52-.091,3.409,0c1.356,0,2.254.581,2.253,2.035,0,1.478-1.1,1.872-2.311,1.871l-3.353,0Zm-3.133,6.338,6.9,0c2.573,0,5.025-1.234,5.027-4.126a3.46,3.46,0,0,0-2.607-3.608,3.085,3.085,0,0,0,1.933-2.967c0-2.652-1.833-3.531-4.544-3.533l-6.7,0Zm3.137-11.8,2.932,0c1.115,0,2.152.3,2.151,1.637,0,1.194-.8,1.691-1.913,1.69l-3.172,0Z" fill="#fff"/>
  </g>
</svg>
