<svg xmlns="http://www.w3.org/2000/svg" width="344.194" height="83.749" viewBox="0 0 344.194 83.749">
  <g id="Group_27" data-name="Group 27" transform="translate(-488.409 -3032.852)">
    <g id="Group_25" data-name="Group 25">
      <path id="Path_31" data-name="Path 31" d="M513.589,3032.852l17.791.012,25.089,67.23-18.262-.012-4.134-12.052-23.44-.016-4.244,12.046-17.98-.012Zm1.1,42.174,15.251.01-7.421-23.539h-.188Z" fill="#d9000d"/>
      <path id="Path_32" data-name="Path 32" d="M561.5,3051.241l15.533.01-.006,8.567h.188c2.358-6.211,7.82-9.5,14.692-9.5a17.058,17.058,0,0,1,3.765.379l-.01,14.591a22.446,22.446,0,0,0-6.118-.945c-7.907,0-12.053,5.451-12.058,11.571l-.016,24.192-16-.01Z" fill="#d9000d"/>
      <path id="Path_33" data-name="Path 33" d="M630.494,3061.643l-9.885-.007-.015,22.217c0,3.858,2.256,4.707,5.739,4.71,1.319,0,2.73-.186,4.143-.185l-.008,11.766c-2.919.092-5.837.467-8.755.465-13.65-.009-17.13-3.965-17.121-17.238l.014-21.746-8.1,0,.007-10.356,8.1.006.01-14.78,16,.011-.01,14.78,9.885.006Z" fill="#d9000d"/>
      <path id="Path_34" data-name="Path 34" d="M637.67,3032.936l16,.011-.017,25.04h.188c2.452-4.988,9.043-8.089,14.879-8.086,16.286.011,17.6,11.873,17.591,18.934l-.021,31.347-16-.011.016-23.628c0-6.684.762-13.461-7.993-13.467-6.024,0-8.664,5.077-8.667,10.443l-.018,26.641-16-.011Z" fill="#d9000d"/>
      <path id="Path_35" data-name="Path 35" d="M697.532,3051.333l15.532.01-.005,8.567h.187c2.358-6.211,7.82-9.5,14.692-9.5a17.073,17.073,0,0,1,3.766.379l-.01,14.591a22.412,22.412,0,0,0-6.119-.945c-7.907-.005-12.053,5.451-12.057,11.571L713.5,3100.2l-16-.011Z" fill="#d9000d"/>
      <path id="Path_36" data-name="Path 36" d="M763.676,3104.565c-3.866,10.728-9.61,12.043-20.435,12.036l-7.531-.006.009-12.99,5.554,0c3.671,0,6.4-2.066,6.4-5.455,0-2.636-3.1-10.169-4.039-12.806l-12.592-33.992,16.945.012,9.2,31.824h.188l9.247-31.812,16.379.011Z" fill="#d9000d"/>
      <path id="Path_37" data-name="Path 37" d="M788.2,3033.037l16,.011-.045,67.214-16-.011Z" fill="#d9000d"/>
    </g>
    <g id="Group_26" data-name="Group 26">
      <path id="Path_38" data-name="Path 38" d="M823.446,3033.643a8.928,8.928,0,1,1-9.169,8.894A8.851,8.851,0,0,1,823.446,3033.643Zm-.011,15.94a7.022,7.022,0,1,0-6.724-7.044A6.781,6.781,0,0,0,823.435,3049.583Zm-3.547-12.053,3.771,0c2.505,0,3.912.79,3.911,2.962a2.493,2.493,0,0,1-2.626,2.671l2.669,4.368h-2.077l-2.43-4.274h-1.242l0,4.271h-1.981Zm1.977,4.177,1.767,0c1.121,0,1.956-.166,1.957-1.383,0-1.074-1.144-1.241-2.051-1.242h-1.671Z" fill="#d9000d"/>
    </g>
  </g>
</svg>
